<svg xmlns="http://www.w3.org/2000/svg" shape-rendering="crispEdges" width="32" height="32" fill="none"><path fill="#660326" d="M5 3h1v1H5zm1-1h2v1H6zm2 1h2v1H8zm4-2h1v3h-1zm1-1h6v1h-6zm6 1h1v3h-1zm3 2h2v1h-2zm2-1h2v1h-2zm2 1h1v1h-1zM2 6h1v2H2zm1-1h1v1H3zm1-1h1v1H4zm6 0h2v1h-2zm10 0h2v1h-2zm7 0h1v1h-1zm1 1h1v1h-1zm1 1h1v2h-1z"/><path fill="#661033" d="M3 8h1v1H3zm1 1h1v1H4zm1 1h1v2H5zm23-2h1v1h-1zm-1 1h1v1h-1zm-1 1h1v2h-1zm-11 1h2v1h-2z"/><path fill="#5D1933" d="M1 12h4v1H1zm-1 1h1v3H0zm11 2h1v1h-1zm1-2h1v2h-1zm1-1h2v1h-2zm4 0h2v1h-2zm2 1h1v2h-1zm1 2h1v1h-1zm7-3h4v1h-4zm4 1h1v3h-1z"/><path fill="#542133" d="M0 16h1v2H0zm1 2h4v1H1zm4 1h1v1H5zm6-3h1v1h-1zm1 1h1v2h-1zm1 2h2v1h-2zm4 0h2v1h-2zm2-2h1v2h-1zm1-1h1v1h-1zm6 3h1v1h-1zm1-1h4v1h-4zm4-2h1v2h-1z"/><path fill="#4C2A33" d="M5 20h1v1H5zm-1 1h1v1H4zm-1 1h1v1H3zm-1 1h1v1H2zm13-3h2v1h-2zm11 0h1v1h-1zm1 1h1v1h-1zm1 1h1v1h-1zm1 1h1v1h-1z"/><path fill="#433233" d="M2 24h1v1H2zm1 1h1v1H3zm1 1h1v1H4zm1 1h1v1H5zm3 0h2v1H8zm2-1h2v1h-2zm2 1h1v1h-1zm7 0h1v1h-1zm1-1h2v1h-2zm2 1h2v1h-2zm4 0h1v1h-1zm1-1h1v1h-1zm1-1h1v1h-1zm1-1h1v1h-1z"/><path fill="#323233" d="M6 28h2v1H6zm6 0h1v3h-1zm1 3h6v1h-6zm6-3h1v3h-1zm5 0h2v1h-2z"/><path fill="#FF005B" d="M6 3h2v1H6zm7-2h6v3h-6zm11 2h2v1h-2z"/><path fill="#FF146A" d="M3 6h26v2H3zm1-1h24v1H4zm1-1h5v1H5zm7 0h8v1h-8zm10 0h5v1h-5z"/><path fill="#FF2980" d="M4 8h24v1H4zm1 1h22v1H5zm1 1h9v2H6zm11 0h9v2h-9zm-2 0h2v1h-2z"/><path fill="#E93F80" d="M5 12h8v1H5zm14 0h8v1h-8zM1 13h11v2H1zm19 0h11v2H20zM1 15h10v1H1zm20 0h10v1H21z"/><path fill="#D45480" d="M1 16h10v1H1zm20 0h10v1H21zM1 17h11v1H1zm19 0h11v1H20zM5 18h7v1H5zm15 0h7v1h-7zM6 19h7v1H6zm13 0h7v1h-7z"/><path fill="#BE6980" d="M6 20h9v1H6zm11 0h9v1h-9zM5 21h22v1H5zm-1 1h24v1H4zm-1 1h26v1H3z"/><path fill="#A97F80" d="M3 24h26v1H3zm1 1h24v1H4zm1 1h5v1H5zm7 0h8v1h-8zm10 0h5v1h-5zM6 27h2v1H6zm7 0h6v1h-6zm11 0h2v1h-2z"/><path fill="#7E7F80" d="M13 28h6v3h-6z"/></svg>
